<svg xmlns="http://www.w3.org/2000/svg" viewBox="0 0 156.65 121.84"><defs><style>.cls-1{fill:#dc4126;}</style></defs><title>redcrystal</title><g id="Layer_2" data-name="Layer 2"><g id="Layer_1-2" data-name="Layer 1"><rect class="cls-1" x="17.41" y="52.22" width="17.41" height="17.41"/><rect class="cls-1" x="34.81" y="69.62" width="17.41" height="17.41"/><rect class="cls-1" x="52.22" y="87.03" width="17.41" height="17.41"/><rect class="cls-1" x="69.62" y="104.43" width="17.41" height="17.41"/><rect class="cls-1" x="87.03" y="87.03" width="17.41" height="17.41"/><rect class="cls-1" x="104.43" y="69.62" width="17.41" height="17.41"/><rect class="cls-1" x="121.84" y="52.22" width="17.41" height="17.41"/><polygon class="cls-1" points="139.25 17.41 139.25 0 121.84 0 104.43 0 87.03 0 69.62 0 52.22 0 34.81 0 17.41 0 17.41 17.41 0 17.41 0 34.81 0 52.22 17.41 52.22 17.41 34.81 34.81 34.81 34.81 17.41 52.22 17.41 52.22 34.81 69.62 34.81 69.62 17.41 87.03 17.41 87.03 34.81 104.43 34.81 104.43 17.41 121.84 17.41 121.84 34.81 139.25 34.81 139.25 52.22 156.65 52.22 156.65 34.81 156.65 17.41 139.25 17.41"/><rect class="cls-1" x="34.81" y="34.81" width="17.41" height="17.41"/><rect class="cls-1" x="69.62" y="34.81" width="17.41" height="17.41"/><rect class="cls-1" x="104.43" y="34.81" width="17.41" height="17.41"/></g></g></svg>
